<svg xmlns="http://www.w3.org/2000/svg" viewBox="0 0 1051 1051" width="1051" height="1051"><metadata><rdf:RDF xmlns:rdf="http://www.w3.org/1999/02/22-rdf-syntax-ns#" xmlns:dc="http://purl.org/dc/elements/1.1/"><rdf:Description><dc:creator>RealFaviconGenerator</dc:creator><dc:source>https://realfavicongenerator.net</dc:source></rdf:Description></rdf:RDF></metadata><defs><style>.cls-1{fill:none;}.cls-1,.cls-2{stroke:#d4af37;stroke-miterlimit:10;stroke-width:20px;}.cls-2{fill:#fff;}</style></defs><g id="Livello_2" data-name="Livello 2"><g id="Livello_1-2" data-name="Livello 1"><circle class="cls-1" cx="525.5" cy="525.5" r="515.5"></circle><path class="cls-2" d="M387.64,387.5a4,4,0,0,0,.24.38,4,4,0,0,0-.38-.24v-.14Z"></path><path class="cls-2" d="M387.5,663.36a4,4,0,0,0,.38-.24,4,4,0,0,0-.24.38h-.14Z"></path><path class="cls-2" d="M663.5,387.5v.14a4,4,0,0,0-.38.24,4,4,0,0,0,.24-.38Z"></path><path class="cls-2" d="M663.12,663.12a4,4,0,0,0,.38.24v.14h-.14A4,4,0,0,0,663.12,663.12Z"></path><path class="cls-1" d="M913.5,525.5a163,163,0,0,1-250,137.86.23.23,0,1,0-.14.14,163,163,0,1,1-275.72,0,4,4,0,0,1,.24-.38,4,4,0,0,1-.38.24,163,163,0,1,1,0-275.72,4,4,0,0,1,.38.24,4,4,0,0,1-.24-.38,163,163,0,1,1,275.72,0,4,4,0,0,1-.24.38,4,4,0,0,1,.38-.24,163,163,0,0,1,250,137.86Z"></path></g></g></svg>